<svg width="45" height="39" viewBox="0 0 45 39" fill="none" xmlns="http://www.w3.org/2000/svg">
<path d="M20.8822 22.7726V33.0583C20.8822 34.4869 20.3822 35.7012 19.3822 36.7012C18.3822 37.7012 17.1679 38.2012 15.7393 38.2012H5.4536C4.02503 38.2012 2.81074 37.7012 1.81074 36.7012C0.810742 35.7012 0.310742 34.4869 0.310742 33.0583V14.2012C0.310742 12.344 0.667885 10.5762 1.38217 8.8976C2.11431 7.20117 3.09646 5.73689 4.3286 4.50474C5.56074 3.2726 7.0161 2.29938 8.69467 1.5851C10.3911 0.852956 12.1679 0.486884 14.025 0.486884H15.7393C16.2036 0.486884 16.6054 0.656528 16.9447 0.995814C17.284 1.3351 17.4536 1.73688 17.4536 2.20117V5.62974C17.4536 6.09403 17.284 6.49581 16.9447 6.8351C16.6054 7.17438 16.2036 7.34403 15.7393 7.34403H14.025C12.1322 7.34403 10.5161 8.01367 9.17681 9.35296C7.83753 10.6922 7.16789 12.3083 7.16789 14.2012V15.0583C7.16789 15.7726 7.41789 16.3797 7.91789 16.8797C8.41789 17.3797 9.02503 17.6297 9.73931 17.6297H15.7393C17.1679 17.6297 18.3822 18.1297 19.3822 19.1297C20.3822 20.1297 20.8822 21.344 20.8822 22.7726ZM44.8822 22.7726V33.0583C44.8822 34.4869 44.3822 35.7012 43.3822 36.7012C42.3822 37.7012 41.1679 38.2012 39.7393 38.2012H29.4536C28.025 38.2012 26.8107 37.7012 25.8107 36.7012C24.8107 35.7012 24.3107 34.4869 24.3107 33.0583V14.2012C24.3107 12.344 24.6679 10.5762 25.3822 8.8976C26.1143 7.20117 27.0965 5.73689 28.3286 4.50474C29.5607 3.2726 31.0161 2.29938 32.6947 1.5851C34.3911 0.852956 36.1679 0.486884 38.025 0.486884H39.7393C40.2036 0.486884 40.6054 0.656528 40.9447 0.995814C41.284 1.3351 41.4536 1.73688 41.4536 2.20117V5.62974C41.4536 6.09403 41.284 6.49581 40.9447 6.8351C40.6054 7.17438 40.2036 7.34403 39.7393 7.34403H38.025C36.1322 7.34403 34.5161 8.01367 33.1768 9.35296C31.8375 10.6922 31.1679 12.3083 31.1679 14.2012V15.0583C31.1679 15.7726 31.4179 16.3797 31.9179 16.8797C32.4179 17.3797 33.025 17.6297 33.7393 17.6297H39.7393C41.1679 17.6297 42.3822 18.1297 43.3822 19.1297C44.3822 20.1297 44.8822 21.344 44.8822 22.7726Z" fill="#DDE7FD"/>
</svg>
