<svg width="46" height="39" viewBox="0 0 46 39" fill="none" xmlns="http://www.w3.org/2000/svg">
<path d="M21.4828 5.82896V24.6861C21.4828 26.5432 21.1167 28.32 20.3845 30.0165C19.6703 31.695 18.697 33.1504 17.4649 34.3825C16.2328 35.6147 14.7685 36.5968 13.072 37.329C11.3935 38.0432 9.62561 38.4004 7.76847 38.4004H6.05419C5.5899 38.4004 5.18811 38.2307 4.84883 37.8915C4.50954 37.5522 4.3399 37.1504 4.3399 36.6861V33.2575C4.3399 32.7932 4.50954 32.3915 4.84883 32.0522C5.18811 31.7129 5.5899 31.5432 6.05419 31.5432H7.76847C9.66133 31.5432 11.2774 30.8736 12.6167 29.5343C13.956 28.195 14.6256 26.579 14.6256 24.6861V23.829C14.6256 23.1147 14.3756 22.5075 13.8756 22.0075C13.3756 21.5075 12.7685 21.2575 12.0542 21.2575H6.05419C4.62561 21.2575 3.41133 20.7575 2.41133 19.7575C1.41133 18.7575 0.911328 17.5432 0.911328 16.1147V5.82896C0.911328 4.40039 1.41133 3.1861 2.41133 2.1861C3.41133 1.1861 4.62561 0.686103 6.05419 0.686103H16.3399C17.7685 0.686103 18.9828 1.1861 19.9828 2.1861C20.9828 3.1861 21.4828 4.40039 21.4828 5.82896ZM45.4828 5.82896V24.6861C45.4828 26.5432 45.1167 28.32 44.3845 30.0165C43.6703 31.695 42.697 33.1504 41.4649 34.3825C40.2328 35.6147 38.7685 36.5968 37.072 37.329C35.3935 38.0432 33.6256 38.4004 31.7685 38.4004H30.0542C29.5899 38.4004 29.1881 38.2307 28.8488 37.8915C28.5095 37.5522 28.3399 37.1504 28.3399 36.6861V33.2575C28.3399 32.7932 28.5095 32.3915 28.8488 32.0522C29.1881 31.7129 29.5899 31.5432 30.0542 31.5432H31.7685C33.6613 31.5432 35.2774 30.8736 36.6167 29.5343C37.956 28.195 38.6256 26.579 38.6256 24.6861V23.829C38.6256 23.1147 38.3756 22.5075 37.8756 22.0075C37.3756 21.5075 36.7685 21.2575 36.0542 21.2575H30.0542C28.6256 21.2575 27.4113 20.7575 26.4113 19.7575C25.4113 18.7575 24.9113 17.5432 24.9113 16.1147V5.82896C24.9113 4.40039 25.4113 3.1861 26.4113 2.1861C27.4113 1.1861 28.6256 0.686103 30.0542 0.686103H40.3399C41.7685 0.686103 42.9828 1.1861 43.9828 2.1861C44.9828 3.1861 45.4828 4.40039 45.4828 5.82896Z" fill="#DDE7FD"/>
</svg>
