<svg width="119" height="32" viewBox="0 0 119 32" fill="none" xmlns="http://www.w3.org/2000/svg">
<g clip-path="url(#clip0_579_2893)">
<rect x="0.200195" y="1.59961" width="118.8" height="30" rx="9.6" fill="#F4F8FB"/>
<path d="M52.75 21.518C52.526 21.518 52.3524 21.4564 52.2292 21.3332C52.1172 21.1988 52.0612 21.0196 52.0612 20.7956V10.262C52.0612 10.0268 52.1228 9.85319 52.246 9.74119C52.3692 9.61799 52.5428 9.55639 52.7668 9.55639H56.7484C58.014 9.55639 58.9884 9.85319 59.6716 10.4468C60.3548 11.0404 60.6964 11.886 60.6964 12.9836C60.6964 13.678 60.5396 14.2828 60.226 14.798C59.9236 15.302 59.4756 15.6884 58.882 15.9572C58.2884 16.2148 57.5772 16.3436 56.7484 16.3436L56.9164 16.1252H57.2524C57.6892 16.1252 58.07 16.2372 58.3948 16.4612C58.7196 16.6852 59.0164 17.0436 59.2852 17.5364L60.898 20.5436C60.9876 20.7004 61.0268 20.8572 61.0156 21.014C61.0156 21.1596 60.9652 21.2828 60.8644 21.3836C60.7636 21.4732 60.618 21.518 60.4276 21.518C60.2372 21.518 60.0804 21.4732 59.9572 21.3836C59.834 21.294 59.7276 21.1652 59.638 20.9972L57.8068 17.6036C57.5492 17.122 57.2524 16.8028 56.9164 16.646C56.5804 16.478 56.138 16.394 55.5892 16.394H53.4388V20.7956C53.4388 21.0196 53.3828 21.1988 53.2708 21.3332C53.1588 21.4564 52.9852 21.518 52.75 21.518ZM53.4388 15.302H56.5468C57.4652 15.302 58.1596 15.1116 58.63 14.7308C59.1004 14.3388 59.3356 13.7564 59.3356 12.9836C59.3356 12.2332 59.1004 11.6676 58.63 11.2868C58.1596 10.8948 57.4652 10.6988 56.5468 10.6988H53.4388V15.302ZM67.2064 21.5516C66.344 21.5516 65.5992 21.3836 64.972 21.0476C64.356 20.7004 63.8744 20.2132 63.5272 19.586C63.1912 18.9588 63.0232 18.2084 63.0232 17.3348C63.0232 16.4836 63.1912 15.7444 63.5272 15.1172C63.8632 14.4788 64.3224 13.9804 64.9048 13.622C65.4984 13.2636 66.1816 13.0844 66.9544 13.0844C67.5032 13.0844 67.996 13.1796 68.4328 13.37C68.8696 13.5492 69.2392 13.8124 69.5416 14.1596C69.8552 14.5068 70.0904 14.9268 70.2472 15.4196C70.4152 15.9124 70.4992 16.4668 70.4992 17.0828C70.4992 17.262 70.4488 17.3964 70.348 17.486C70.2472 17.5644 70.1016 17.6036 69.9112 17.6036H64.0648V16.7132H69.592L69.3232 16.9316C69.3232 16.3268 69.2336 15.8172 69.0544 15.4028C68.8752 14.9772 68.612 14.6524 68.2648 14.4284C67.9288 14.2044 67.5032 14.0924 66.988 14.0924C66.4168 14.0924 65.9296 14.2268 65.5264 14.4956C65.1344 14.7532 64.8376 15.1172 64.636 15.5876C64.4344 16.0468 64.3336 16.5844 64.3336 17.2004V17.3012C64.3336 18.3316 64.58 19.1156 65.0728 19.6532C65.5768 20.1908 66.288 20.4596 67.2064 20.4596C67.5872 20.4596 67.9624 20.4092 68.332 20.3084C68.7128 20.2076 69.0824 20.0396 69.4408 19.8044C69.5976 19.7036 69.7376 19.6588 69.8608 19.67C69.9952 19.67 70.1016 19.7092 70.18 19.7876C70.2584 19.8548 70.3088 19.9444 70.3312 20.0564C70.3648 20.1572 70.3536 20.2692 70.2976 20.3924C70.2528 20.5156 70.1576 20.622 70.012 20.7116C69.6424 20.9804 69.2056 21.1876 68.7016 21.3332C68.1976 21.4788 67.6992 21.5516 67.2064 21.5516ZM73.7335 24.542C73.5095 24.542 73.3415 24.4804 73.2295 24.3572C73.1175 24.2452 73.0615 24.0772 73.0615 23.8532V13.8068C73.0615 13.5828 73.1175 13.4148 73.2295 13.3028C73.3415 13.1796 73.5039 13.118 73.7167 13.118C73.9407 13.118 74.1087 13.1796 74.2207 13.3028C74.3439 13.4148 74.4055 13.5828 74.4055 13.8068V15.4028L74.2207 15.1676C74.3999 14.5292 74.7527 14.0252 75.2791 13.6556C75.8167 13.2748 76.4551 13.0844 77.1943 13.0844C77.9223 13.0844 78.5551 13.258 79.0927 13.6052C79.6415 13.9412 80.0615 14.4284 80.3527 15.0668C80.6551 15.694 80.8063 16.4444 80.8063 17.318C80.8063 18.1804 80.6551 18.9308 80.3527 19.5692C80.0615 20.1964 79.6471 20.6836 79.1095 21.0308C78.5719 21.378 77.9335 21.5516 77.1943 21.5516C76.4551 21.5516 75.8223 21.3668 75.2959 20.9972C74.7695 20.6164 74.4111 20.1124 74.2207 19.4852H74.4223V23.8532C74.4223 24.0772 74.3607 24.2452 74.2375 24.3572C74.1143 24.4804 73.9463 24.542 73.7335 24.542ZM76.9087 20.4596C77.4239 20.4596 77.8663 20.3364 78.2359 20.09C78.6167 19.8436 78.9079 19.4852 79.1095 19.0148C79.3223 18.5444 79.4287 17.9788 79.4287 17.318C79.4287 16.2988 79.1991 15.5204 78.7399 14.9828C78.2919 14.4452 77.6815 14.1764 76.9087 14.1764C76.4047 14.1764 75.9623 14.2996 75.5815 14.546C75.2007 14.7812 74.9039 15.134 74.6911 15.6044C74.4895 16.0636 74.3887 16.6348 74.3887 17.318C74.3887 18.326 74.6183 19.1044 75.0775 19.6532C75.5367 20.1908 76.1471 20.4596 76.9087 20.4596ZM85.9354 21.5516C85.129 21.5516 84.513 21.3052 84.0874 20.8124C83.6618 20.3196 83.449 19.614 83.449 18.6956V10.1276C83.449 9.90359 83.505 9.73559 83.617 9.62359C83.729 9.50039 83.897 9.43879 84.121 9.43879C84.3338 9.43879 84.5018 9.50039 84.625 9.62359C84.7482 9.73559 84.8098 9.90359 84.8098 10.1276V18.5948C84.8098 19.1996 84.9274 19.6532 85.1626 19.9556C85.409 20.2468 85.7674 20.3924 86.2378 20.3924C86.3386 20.3924 86.4282 20.3868 86.5066 20.3756C86.585 20.3644 86.6634 20.3588 86.7418 20.3588C86.865 20.3476 86.949 20.3756 86.9938 20.4428C87.0498 20.51 87.0778 20.6444 87.0778 20.846C87.0778 21.0476 87.033 21.1988 86.9434 21.2996C86.8538 21.4004 86.7082 21.4676 86.5066 21.5012C86.417 21.5124 86.3218 21.5236 86.221 21.5348C86.1202 21.546 86.025 21.5516 85.9354 21.5516ZM90.647 24.542C90.479 24.542 90.3446 24.4972 90.2438 24.4076C90.143 24.318 90.0814 24.1948 90.059 24.038C90.0478 23.8924 90.0758 23.7412 90.143 23.5844L91.3022 20.9804V21.5684L88.0766 14.0756C88.0094 13.9076 87.987 13.7508 88.0094 13.6052C88.0318 13.4596 88.099 13.342 88.211 13.2524C88.323 13.1628 88.4798 13.118 88.6814 13.118C88.8606 13.118 89.0006 13.1572 89.1014 13.2356C89.2022 13.314 89.2918 13.454 89.3702 13.6556L92.1254 20.4092H91.6718L94.4606 13.6556C94.5502 13.454 94.6454 13.314 94.7462 13.2356C94.847 13.1572 94.9926 13.118 95.183 13.118C95.3622 13.118 95.4966 13.1628 95.5862 13.2524C95.687 13.342 95.743 13.4596 95.7542 13.6052C95.7766 13.7396 95.7542 13.8908 95.687 14.0588L91.3862 24.0044C91.2966 24.206 91.1958 24.346 91.0838 24.4244C90.983 24.5028 90.8374 24.542 90.647 24.542Z" fill="#77838F"/>
<path d="M38.5998 20.9008C38.5998 21.9383 38.2029 23.3477 37.4092 25.1289C37.3904 25.1727 37.3561 25.2477 37.3061 25.3539C37.2623 25.4602 37.2217 25.5539 37.1842 25.6352C37.1467 25.7164 37.1061 25.7852 37.0623 25.8414C36.9873 25.9477 36.8998 26.0008 36.7998 26.0008C36.7061 26.0008 36.6311 25.9695 36.5748 25.907C36.5248 25.8445 36.4998 25.7664 36.4998 25.6727C36.4998 25.6164 36.5061 25.532 36.5186 25.4195C36.5373 25.3133 36.5467 25.2414 36.5467 25.2039C36.5779 24.7789 36.5936 24.3945 36.5936 24.0508C36.5936 23.4195 36.5373 22.8539 36.4248 22.3539C36.3186 21.8539 36.1686 21.4227 35.9748 21.0602C35.7811 20.6914 35.5311 20.3758 35.2248 20.1133C34.9186 19.8445 34.5873 19.6258 34.2311 19.457C33.8811 19.2883 33.4654 19.157 32.9842 19.0633C32.5092 18.9633 32.0279 18.8945 31.5404 18.857C31.0592 18.8195 30.5123 18.8008 29.8998 18.8008H27.7998V21.2008C27.7998 21.3633 27.7404 21.5039 27.6217 21.6227C27.5029 21.7414 27.3623 21.8008 27.1998 21.8008C27.0373 21.8008 26.8967 21.7414 26.7779 21.6227L21.9779 16.8227C21.8592 16.7039 21.7998 16.5633 21.7998 16.4008C21.7998 16.2383 21.8592 16.0977 21.9779 15.9789L26.7779 11.1789C26.8967 11.0602 27.0373 11.0008 27.1998 11.0008C27.3623 11.0008 27.5029 11.0602 27.6217 11.1789C27.7404 11.2977 27.7998 11.4383 27.7998 11.6008V14.0008H29.8998C34.3561 14.0008 37.0904 15.2602 38.1029 17.7789C38.4342 18.6164 38.5998 19.657 38.5998 20.9008Z" fill="#6F8BA4"/>
</g>
<defs>
<clipPath id="clip0_579_2893">
<rect width="118.8" height="31.2" fill="white" transform="translate(0.200195 0.400391)"/>
</clipPath>
</defs>
</svg>
